<svg width="8" height="16" viewBox="0 0 8 16" fill="none" xmlns="http://www.w3.org/2000/svg">
<path d="M5.33078 8.25781H4.83078V8.75781V15.5H2.73969V8.75781V8.25781H2.23969H0.5V6.21094H2.23969H2.73969V5.71094V3.72656H2.7397L2.73969 3.72442C2.73497 2.62438 3.03237 1.8502 3.56499 1.32466C4.11657 0.780398 4.81693 0.5 5.70662 0.5C6.4472 0.5 7.04308 0.520005 7.5 0.557953V2.46875H6.71141C6.13676 2.46875 5.57814 2.59011 5.23733 3.00119C4.93912 3.36088 4.83078 3.84111 4.83078 4.35938V5.71094V6.21094H5.33078H7.32997L7.08779 8.25781H5.33078Z" stroke="url(#paint0_linear)"/>
<defs>
<linearGradient id="paint0_linear" x1="0.52" y1="-4.60162e-07" x2="12.3138" y2="6.4159" gradientUnits="userSpaceOnUse">
<stop stop-color="#E11D84"/>
<stop offset="1" stop-color="#0DD1EB"/>
</linearGradient>
</defs>
</svg>
