<svg width="538" height="588" viewBox="0 0 538 588" fill="none" xmlns="http://www.w3.org/2000/svg">
<path fill-rule="evenodd" clip-rule="evenodd" d="M422.778 261.34L384.74 102.9C384.453 101.704 383.903 100.753 383.211 100.253L291.5 33.9591C290.803 33.4554 290.018 33.45 289.318 33.9441L197.713 98.5918C197.008 99.0894 196.447 100.052 196.156 101.266L158.262 258.945C157.973 260.15 157.972 261.503 158.261 262.707L196.3 421.148C196.587 422.343 197.136 423.294 197.828 423.794L289.54 490.088C290.237 490.592 291.021 490.597 291.722 490.103L383.326 425.455C384.031 424.958 384.592 423.995 384.884 422.781L422.777 265.103C423.067 263.897 423.067 262.544 422.778 261.34ZM387.374 101.012C386.8 98.6212 385.702 96.7189 384.317 95.7184L292.606 29.4249C291.212 28.4174 289.643 28.4067 288.242 29.3949L196.637 94.0426C195.227 95.0378 194.106 96.9636 193.522 99.3909L155.629 257.069C155.05 259.48 155.049 262.187 155.627 264.594L193.666 423.035C194.24 425.426 195.338 427.328 196.722 428.329L288.434 494.622C289.827 495.63 291.397 495.64 292.797 494.652L384.402 430.005C385.812 429.009 386.934 427.084 387.517 424.656L425.411 266.978C425.99 264.567 425.991 261.86 425.413 259.453L387.374 101.012Z" fill="url(#paint0_linear)" fill-opacity="0.3"/>
<path fill-rule="evenodd" clip-rule="evenodd" d="M376.941 277.99L343.236 137.707C342.949 136.517 342.403 135.57 341.714 135.071L260.5 76.3084C259.804 75.8048 259.019 75.7993 258.319 76.2929L177.248 133.417C176.541 133.916 175.978 134.882 175.685 136.099L142.17 275.591C141.88 276.797 141.88 278.149 142.169 279.351L175.874 419.634C176.16 420.825 176.707 421.771 177.396 422.27L258.61 481.033C259.306 481.536 260.09 481.542 260.791 481.048L341.861 423.924C342.569 423.425 343.132 422.46 343.424 421.242L376.939 281.75C377.229 280.544 377.229 279.192 376.941 277.99ZM345.869 135.812C345.297 133.431 344.204 131.537 342.825 130.54L261.611 71.7773C260.219 70.7702 258.65 70.7591 257.249 71.7463L176.179 128.871C174.764 129.868 173.638 131.8 173.053 134.234L139.538 273.726C138.959 276.137 138.958 278.842 139.535 281.246L173.24 421.529C173.812 423.91 174.906 425.804 176.284 426.801L257.498 485.564C258.89 486.571 260.459 486.582 261.86 485.595L342.931 428.471C344.345 427.474 345.471 425.542 346.056 423.107L379.572 283.615C380.151 281.204 380.152 278.499 379.574 276.095L345.869 135.812Z" fill="url(#paint1_linear)" fill-opacity="0.3"/>
<path fill-rule="evenodd" clip-rule="evenodd" d="M328.761 294.743L299.494 173.084C299.206 171.889 298.657 170.938 297.966 170.437L227.534 119.413C226.838 118.908 226.054 118.901 225.354 119.393L155.072 168.853C154.368 169.348 153.808 170.309 153.517 171.52L124.499 292.451C124.21 293.654 124.21 295.005 124.5 296.208L153.767 417.867C154.054 419.062 154.603 420.013 155.295 420.514L225.727 471.538C226.423 472.043 227.207 472.05 227.906 471.558L298.189 422.098C298.893 421.603 299.453 420.642 299.743 419.431L328.762 298.5C329.051 297.297 329.05 295.946 328.761 294.743ZM302.124 171.204C301.55 168.815 300.451 166.913 299.068 165.911L228.636 114.887C227.244 113.878 225.676 113.864 224.277 114.848L153.995 164.307C152.587 165.298 151.467 167.219 150.886 169.642L121.867 290.573C121.29 292.979 121.291 295.682 121.869 298.087L151.136 419.746C151.711 422.135 152.809 424.038 154.192 425.04L224.624 476.064C226.017 477.073 227.585 477.087 228.983 476.103L299.266 426.644C300.674 425.653 301.793 423.732 302.375 421.309L331.394 300.378C331.971 297.972 331.97 295.269 331.391 292.863L302.124 171.204Z" fill="url(#paint2_linear)" fill-opacity="0.3"/>
<path fill-rule="evenodd" clip-rule="evenodd" d="M280.583 311.539L255.74 208.456C255.454 207.268 254.908 206.323 254.221 205.824L194.543 162.514C193.848 162.009 193.065 162.002 192.366 162.493L132.897 204.267C132.19 204.763 131.628 205.727 131.337 206.943L106.827 309.268C106.539 310.471 106.54 311.821 106.829 313.022L131.672 416.105C131.958 417.292 132.504 418.238 133.191 418.737L192.869 462.047C193.564 462.551 194.347 462.559 195.046 462.067L254.515 420.294C255.222 419.797 255.784 418.833 256.075 417.617L280.585 315.292C280.873 314.089 280.872 312.739 280.583 311.539ZM258.368 206.567C257.796 204.191 256.704 202.301 255.329 201.303L195.651 157.993C194.261 156.984 192.695 156.969 191.296 157.951L131.828 199.725C130.414 200.718 129.29 202.646 128.708 205.078L104.198 307.403C103.622 309.809 103.623 312.51 104.201 314.91L129.044 417.993C129.616 420.369 130.708 422.26 132.083 423.258L191.761 466.568C193.151 467.577 194.717 467.591 196.116 466.609L255.585 424.835C256.998 423.843 258.122 421.914 258.704 419.482L283.214 317.158C283.79 314.751 283.789 312.051 283.211 309.65L258.368 206.567Z" fill="url(#paint3_linear)" fill-opacity="0.3"/>
<path fill-rule="evenodd" clip-rule="evenodd" d="M232.697 330.294L212.245 245.28C211.958 244.086 211.409 243.135 210.717 242.634L161.521 207.014C160.824 206.51 160.041 206.504 159.342 206.996L110.275 241.596C109.571 242.092 109.012 243.053 108.721 244.265L88.4702 328.777C88.1818 329.98 88.1823 331.332 88.4717 332.535L108.923 417.549C109.211 418.744 109.76 419.694 110.451 420.195L159.648 455.815C160.344 456.319 161.127 456.326 161.826 455.833L210.894 421.233C211.597 420.737 212.157 419.776 212.447 418.564L232.698 334.053C232.986 332.849 232.986 331.497 232.697 330.294ZM214.874 243.398C214.299 241.009 213.201 239.107 211.819 238.106L162.622 202.486C161.23 201.478 159.662 201.465 158.265 202.451L109.198 237.05C107.79 238.043 106.671 239.965 106.091 242.389L85.8396 326.9C85.2628 329.307 85.2639 332.011 85.8427 334.417L106.294 419.431C106.869 421.82 107.967 423.722 109.349 424.723L158.546 460.343C159.938 461.351 161.506 461.364 162.903 460.379L211.971 425.779C213.378 424.786 214.497 422.864 215.078 420.44L235.329 335.929C235.905 333.522 235.904 330.818 235.326 328.412L214.874 243.398Z" fill="url(#paint4_linear)" fill-opacity="0.3"/>
<path fill-rule="evenodd" clip-rule="evenodd" d="M185.092 344.339L169.242 278.225C168.956 277.033 168.409 276.085 167.719 275.587L129.459 247.981C128.765 247.479 127.982 247.475 127.284 247.969L89.0825 275.002C88.3793 275.499 87.8197 276.461 87.5285 277.672L71.7072 343.468C71.418 344.67 71.4172 346.021 71.705 347.221L87.5549 413.335C87.8406 414.527 88.3879 415.474 89.0778 415.972L127.337 443.579C128.032 444.08 128.815 444.084 129.513 443.59L167.714 416.558C168.417 416.06 168.977 415.099 169.268 413.888L185.09 348.092C185.379 346.889 185.38 345.539 185.092 344.339ZM171.869 276.338C171.298 273.953 170.203 272.058 168.823 271.062L130.564 243.455C129.175 242.453 127.609 242.445 126.213 243.433L88.0114 270.465C86.605 271.461 85.4858 273.384 84.9033 275.806L69.0821 341.602C68.5036 344.007 68.502 346.708 69.0776 349.108L84.9275 415.222C85.4991 417.606 86.5936 419.502 87.9733 420.497L126.233 448.104C127.622 449.107 129.187 449.115 130.584 448.126L168.785 421.094C170.192 420.099 171.311 418.176 171.893 415.753L187.715 349.958C188.293 347.552 188.295 344.852 187.719 342.451L171.869 276.338Z" fill="url(#paint5_linear)" fill-opacity="0.3"/>
<path fill-rule="evenodd" clip-rule="evenodd" d="M137.255 363.968L125.743 316.044C125.456 314.85 124.907 313.899 124.216 313.399L96.4826 293.348C95.7865 292.845 95.0027 292.84 94.3035 293.333L66.6514 312.861C65.9473 313.358 65.3874 314.32 65.0964 315.532L53.6674 363.159C53.3784 364.363 53.3784 365.715 53.6673 366.918L65.1797 414.842C65.4666 416.037 66.0153 416.987 66.7066 417.487L94.4396 437.538C95.1357 438.041 95.9196 438.047 96.6187 437.553L124.271 418.026C124.975 417.528 125.535 416.566 125.826 415.354L137.255 367.727C137.544 366.523 137.544 365.171 137.255 363.968ZM128.373 314.158C127.799 311.769 126.702 309.869 125.319 308.869L97.5862 288.818C96.1941 287.811 94.6264 287.8 93.2281 288.788L65.5759 308.315C64.1678 309.31 63.048 311.234 62.466 313.659L51.0369 361.286C50.459 363.694 50.4589 366.398 51.0369 368.804L62.5492 416.728C63.1231 419.117 64.2205 421.018 65.603 422.017L93.3361 442.069C94.7282 443.075 96.2959 443.086 97.6942 442.098L125.346 422.571C126.754 421.577 127.874 419.652 128.456 417.227L139.885 369.601C140.463 367.192 140.463 364.488 139.885 362.082L128.373 314.158Z" fill="url(#paint6_linear)" fill-opacity="0.3"/>
<path fill-rule="evenodd" clip-rule="evenodd" d="M90.412 381.589L83.244 351.869C82.9547 350.67 82.4032 349.714 81.7091 349.21L64.5106 336.726C63.8117 336.219 63.0254 336.211 62.3245 336.704L45.2264 348.728C44.5207 349.225 43.9601 350.188 43.6696 351.404L36.6314 380.853C36.3429 382.06 36.3445 383.416 36.6358 384.624L43.8038 414.344C44.0931 415.543 44.6446 416.498 45.3387 417.002L62.5371 429.487C63.236 429.994 64.0224 430.002 64.7232 429.509L81.8214 417.484C82.5271 416.988 83.0877 416.025 83.3782 414.809L90.4164 385.36C90.7049 384.153 90.7033 382.796 90.412 381.589ZM85.8807 349.986C85.3022 347.588 84.199 345.677 82.8109 344.669L65.6125 332.185C64.2146 331.17 62.6419 331.154 61.2403 332.14L44.1421 344.165C42.7307 345.157 41.6095 347.084 41.0285 349.515L33.9903 378.964C33.4133 381.378 33.4164 384.091 33.999 386.507L41.167 416.226C41.7456 418.625 42.8487 420.536 44.2369 421.544L61.4353 434.028C62.8331 435.043 64.4059 435.059 65.8075 434.073L82.9056 422.048C84.3171 421.056 85.4383 419.129 86.0193 416.698L93.0575 387.249C93.6345 384.835 93.6313 382.121 93.0488 379.706L85.8807 349.986Z" fill="url(#paint7_linear)" fill-opacity="0.3"/>
<path fill-rule="evenodd" clip-rule="evenodd" d="M41.8135 397.655L39.2299 386.82C38.9452 385.626 38.3979 384.678 37.7068 384.182L31.4366 379.682C30.7407 379.183 29.9559 379.182 29.2548 379.681L23.0269 384.112C22.3209 384.615 21.7582 385.581 21.4642 386.797L18.871 397.524C18.5791 398.731 18.5761 400.085 18.8628 401.288L21.4464 412.123C21.7311 413.317 22.2784 414.265 22.9695 414.761L29.2397 419.261C29.9356 419.76 30.7204 419.761 31.4215 419.262L37.6494 414.831C38.3554 414.329 38.9181 413.362 39.2121 412.146L41.8053 401.419C42.0972 400.212 42.1002 398.858 41.8135 397.655ZM41.8678 384.915C41.2983 382.527 40.2037 380.631 38.8215 379.639L32.5513 375.139C31.1596 374.14 29.5899 374.139 28.1877 375.137L21.9598 379.568C20.5478 380.573 19.4225 382.506 18.8345 384.938L16.2413 395.665C15.6574 398.08 15.6515 400.788 16.225 403.193L18.8085 414.028C19.378 416.416 20.4726 418.312 21.8548 419.304L28.125 423.804C29.5167 424.803 31.0864 424.804 32.4886 423.806L38.7165 419.375C40.1285 418.37 41.2538 416.437 41.8418 414.005L44.435 403.278C45.0189 400.863 45.0248 398.155 44.4513 395.75L41.8678 384.915Z" fill="url(#paint8_linear)" fill-opacity="0.3"/>
<path fill-rule="evenodd" clip-rule="evenodd" d="M18.3726 405.457L17.9694 403.768C17.6821 402.564 17.1301 401.607 16.4332 401.107L15.4555 400.405C14.7539 399.901 13.9626 399.9 13.2559 400.402L12.3328 401.059C11.6212 401.565 11.0541 402.539 10.758 403.765L10.3739 405.355C10.0798 406.572 10.0772 407.937 10.3665 409.149L10.7696 410.839C11.057 412.043 11.609 412.999 12.3058 413.499L13.2835 414.202C13.9852 414.706 14.7764 414.706 15.4832 414.204L16.4062 413.548C17.1179 413.042 17.685 412.067 17.9811 410.842L18.3651 409.252C18.6592 408.035 18.6619 406.67 18.3726 405.457ZM20.6285 401.849C20.0538 399.44 18.9498 397.528 17.5561 396.527L16.5784 395.825C15.1751 394.817 13.5926 394.815 12.1791 395.82L11.2561 396.477C9.83272 397.489 8.69856 399.437 8.10632 401.889L7.72226 403.479C7.13412 405.913 7.1288 408.643 7.70745 411.068L8.11059 412.758C8.68524 415.166 9.78929 417.078 11.183 418.079L12.1606 418.781C13.564 419.789 15.1465 419.791 16.5599 418.786L17.483 418.13C18.9063 417.118 20.0405 415.169 20.6327 412.717L21.0168 411.128C21.6049 408.693 21.6103 405.963 21.0316 403.538L20.6285 401.849Z" fill="url(#paint9_linear)" fill-opacity="0.3"/>
<defs>
<linearGradient id="paint0_linear" x1="195.581" y1="28.5767" x2="-23.4414" y2="307.945" gradientUnits="userSpaceOnUse">
<stop stop-color="#E11D84"/>
<stop offset="1" stop-color="#0DD1EB"/>
</linearGradient>
<linearGradient id="paint1_linear" x1="174.978" y1="70.7661" x2="-20.0142" y2="319.27" gradientUnits="userSpaceOnUse">
<stop stop-color="#E11D84"/>
<stop offset="1" stop-color="#0DD1EB"/>
</linearGradient>
<linearGradient id="paint2_linear" x1="152.659" y1="113.721" x2="-17.7276" y2="330.627" gradientUnits="userSpaceOnUse">
<stop stop-color="#E11D84"/>
<stop offset="1" stop-color="#0DD1EB"/>
</linearGradient>
<linearGradient id="paint3_linear" x1="130.335" y1="156.671" x2="-15.4448" y2="341.962" gradientUnits="userSpaceOnUse">
<stop stop-color="#E11D84"/>
<stop offset="1" stop-color="#0DD1EB"/>
</linearGradient>
<linearGradient id="paint4_linear" x1="107.613" y1="201.251" x2="-14.427" y2="356.687" gradientUnits="userSpaceOnUse">
<stop stop-color="#E11D84"/>
<stop offset="1" stop-color="#0DD1EB"/>
</linearGradient>
<linearGradient id="paint5_linear" x1="86.3326" y1="242.286" x2="-10.8262" y2="366.409" gradientUnits="userSpaceOnUse">
<stop stop-color="#E11D84"/>
<stop offset="1" stop-color="#0DD1EB"/>
</linearGradient>
<linearGradient id="paint6_linear" x1="63.753" y1="287.489" x2="-9.37536" y2="380.746" gradientUnits="userSpaceOnUse">
<stop stop-color="#E11D84"/>
<stop offset="1" stop-color="#0DD1EB"/>
</linearGradient>
<linearGradient id="paint7_linear" x1="42.1723" y1="330.689" x2="-6.92584" y2="393.081" gradientUnits="userSpaceOnUse">
<stop stop-color="#E11D84"/>
<stop offset="1" stop-color="#0DD1EB"/>
</linearGradient>
<linearGradient id="paint8_linear" x1="19.8943" y1="373.727" x2="-4.32226" y2="404.812" gradientUnits="userSpaceOnUse">
<stop stop-color="#E11D84"/>
<stop offset="1" stop-color="#0DD1EB"/>
</linearGradient>
<linearGradient id="paint9_linear" x1="9.10208" y1="394.322" x2="-3.10524" y2="409.982" gradientUnits="userSpaceOnUse">
<stop stop-color="#E11D84"/>
<stop offset="1" stop-color="#0DD1EB"/>
</linearGradient>
</defs>
</svg>
