<svg width="660" height="656" viewBox="0 0 660 656" fill="none" xmlns="http://www.w3.org/2000/svg">
<g clip-path="url(#clip0)">
<path fill-rule="evenodd" clip-rule="evenodd" d="M662.255 -176.027L391.363 -461.741C390.513 -462.637 389.559 -463.188 388.709 -463.273L117.817 -490.359C116.967 -490.444 116.291 -490.056 115.939 -489.279L3.73392 -241.876C3.38136 -241.099 3.38136 -239.997 3.73392 -238.812L115.939 138.153C116.291 139.337 116.967 140.506 117.817 141.402L388.709 427.116C389.559 428.012 390.513 428.563 391.363 428.648L662.255 455.734C663.106 455.819 663.781 455.431 664.134 454.654L776.338 207.251C776.691 206.474 776.691 205.372 776.338 204.187L664.134 -172.778C663.781 -173.962 663.106 -175.131 662.255 -176.027ZM392.69 -464.672C390.991 -466.464 389.082 -467.566 387.382 -467.736L116.49 -494.822C114.789 -494.992 113.438 -494.215 112.734 -492.661L0.528844 -245.259C-0.176294 -243.704 -0.176295 -241.499 0.528842 -239.13L112.734 137.835C113.438 140.202 114.789 142.54 116.49 144.333L387.382 430.047C389.082 431.839 390.991 432.941 392.69 433.111L663.582 460.197C665.283 460.367 666.634 459.59 667.339 458.036L779.543 210.634C780.248 209.079 780.248 206.874 779.543 204.505L667.339 -172.46C666.634 -174.827 665.283 -177.165 663.582 -178.958L392.69 -464.672Z" fill="url(#paint0_linear)" fill-opacity="0.4"/>
<path fill-rule="evenodd" clip-rule="evenodd" d="M587.443 -83.6347L347.42 -336.857C346.571 -337.752 345.617 -338.303 344.768 -338.387L104.83 -362.271C103.981 -362.356 103.306 -361.967 102.954 -361.19L3.6559 -141.75C3.30402 -140.973 3.30443 -139.87 3.65703 -138.686L103.16 195.531C103.512 196.715 104.188 197.883 105.037 198.779L345.06 452.001C345.909 452.897 346.863 453.448 347.712 453.532L587.65 477.416C588.499 477.501 589.174 477.112 589.526 476.334L688.824 256.895C689.176 256.118 689.176 255.015 688.823 253.831L589.32 -80.3863C588.968 -81.5699 588.292 -82.7384 587.443 -83.6347ZM348.744 -339.788C347.046 -341.58 345.139 -342.681 343.441 -342.85L103.503 -366.734C101.804 -366.903 100.455 -366.125 99.7516 -364.571L0.453227 -145.131C-0.250532 -143.576 -0.24972 -141.371 0.455489 -139.003L99.9585 195.215C100.663 197.582 102.014 199.919 103.713 201.711L343.736 454.933C345.434 456.725 347.341 457.826 349.039 457.995L588.977 481.879C590.676 482.048 592.025 481.27 592.728 479.715L692.027 260.276C692.731 258.721 692.73 256.516 692.025 254.147L592.522 -80.0697C591.817 -82.4369 590.466 -84.7739 588.767 -86.5664L348.744 -339.788Z" fill="url(#paint1_linear)" fill-opacity="0.4"/>
<path fill-rule="evenodd" clip-rule="evenodd" d="M513.565 9.03886L304.159 -211.865C303.309 -212.761 302.355 -213.311 301.507 -213.396L92.174 -234.251C91.3245 -234.336 90.6497 -233.947 90.2979 -233.17L3.66613 -41.7657C3.31417 -40.988 3.31458 -39.8856 3.66727 -38.7011L90.4776 252.84C90.8301 254.024 91.5055 255.192 92.3553 256.089L301.762 476.992C302.611 477.888 303.565 478.439 304.414 478.523L513.746 499.379C514.596 499.463 515.271 499.074 515.622 498.297L602.254 306.893C602.606 306.115 602.606 305.013 602.253 303.829L515.443 12.2876C515.09 11.1039 514.415 9.9353 513.565 9.03886ZM305.483 -214.797C303.785 -216.588 301.877 -217.69 300.179 -217.859L90.8466 -238.714C89.1477 -238.884 87.798 -238.105 87.0945 -236.551L0.462699 -45.1471C-0.241226 -43.5918 -0.24041 -41.387 0.464966 -39.018L87.2753 252.523C87.9802 254.89 89.3311 257.228 91.0306 259.02L300.437 479.924C302.136 481.716 304.043 482.817 305.741 482.986L515.074 503.842C516.773 504.011 518.122 503.233 518.826 501.679L605.458 310.275C606.161 308.719 606.161 306.514 605.455 304.145L518.645 12.6045C517.94 10.2371 516.589 7.8999 514.89 6.10706L305.483 -214.797Z" fill="url(#paint2_linear)" fill-opacity="0.4"/>
<path fill-rule="evenodd" clip-rule="evenodd" d="M439.687 100.711L260.898 -87.8739C260.048 -88.77 259.094 -89.3209 258.245 -89.4056L79.5184 -107.232C78.6687 -107.317 77.9936 -106.928 77.6418 -106.151L3.67666 57.2183C3.32458 57.9959 3.32499 59.0985 3.67779 60.283L77.7953 309.148C78.1479 310.331 78.8235 311.5 79.6735 312.397L258.463 500.982C259.312 501.878 260.267 502.429 261.116 502.514L439.842 520.34C440.692 520.425 441.367 520.036 441.719 519.259L515.684 355.89C516.036 355.112 516.035 354.01 515.683 352.825L441.565 103.961C441.213 102.777 440.537 101.608 439.687 100.711ZM262.223 -90.8058C260.524 -92.5979 258.615 -93.6997 256.917 -93.8691L78.1906 -111.696C76.4911 -111.865 75.141 -111.087 74.4373 -109.533L0.472216 53.8361C-0.231931 55.3914 -0.231117 57.5965 0.47448 59.9657L74.592 308.83C75.2971 311.198 76.6484 313.535 78.3484 315.329L257.138 503.914C258.837 505.706 260.745 506.808 262.444 506.977L441.17 524.804C442.869 524.973 444.219 524.195 444.923 522.641L518.888 359.272C519.592 357.717 519.592 355.512 518.886 353.142L444.768 104.278C444.063 101.91 442.712 99.5727 441.012 97.7794L262.223 -90.8058Z" fill="url(#paint3_linear)" fill-opacity="0.4"/>
<path fill-rule="evenodd" clip-rule="evenodd" d="M365.808 194.385L217.636 38.1182C216.786 37.2219 215.832 36.6707 214.982 36.5859L66.8628 21.7885C66.0127 21.7035 65.3373 22.0924 64.9853 22.8696L3.68716 158.203C3.33494 158.981 3.33534 160.084 3.6883 161.269L65.1127 367.456C65.4654 368.64 66.1414 369.809 66.9918 370.706L215.163 526.973C216.013 527.869 216.968 528.42 217.817 528.505L365.937 543.302C366.787 543.387 367.462 542.998 367.814 542.221L429.113 406.887C429.465 406.11 429.464 405.007 429.111 403.822L367.687 197.634C367.334 196.45 366.658 195.281 365.808 194.385ZM218.962 35.1863C217.262 33.3937 215.353 32.2914 213.654 32.1216L65.5344 17.3243C63.8342 17.1544 62.4835 17.9322 61.7795 19.4865L0.48131 154.82C-0.223148 156.376 -0.222333 158.581 0.483576 160.95L61.908 367.138C62.6134 369.506 63.9653 371.844 65.6661 373.638L213.838 529.904C215.538 531.697 217.447 532.799 219.146 532.969L367.265 547.767C368.966 547.936 370.316 547.159 371.02 545.604L432.318 410.27C433.023 408.715 433.022 406.51 432.316 404.14L370.892 197.953C370.186 195.584 368.834 193.246 367.134 191.453L218.962 35.1863Z" fill="url(#paint4_linear)" fill-opacity="0.4"/>
<path fill-rule="evenodd" clip-rule="evenodd" d="M291.929 287.057L174.376 163.111C173.525 162.214 172.57 161.662 171.72 161.577L54.2084 149.81C53.3578 149.724 52.682 150.113 52.3297 150.89L3.69898 258.189C3.34652 258.967 3.34693 260.07 3.70012 261.255L52.431 424.765C52.7839 425.949 53.4603 427.119 54.3113 428.016L171.864 551.963C172.715 552.859 173.67 553.411 174.52 553.496L292.031 565.264C292.882 565.349 293.558 564.96 293.91 564.183L342.541 456.884C342.893 456.107 342.893 455.004 342.54 453.819L293.809 290.308C293.456 289.124 292.78 287.955 291.929 287.057ZM175.702 160.179C174.001 158.385 172.091 157.282 170.391 157.112L52.8792 145.344C51.1778 145.174 49.8262 145.951 49.1218 147.506L0.491009 254.804C-0.213915 256.36 -0.2131 258.565 0.493275 260.936L49.2241 424.446C49.9301 426.815 51.2828 429.154 52.9847 430.948L170.538 554.895C172.239 556.688 174.149 557.791 175.849 557.961L293.361 569.729C295.062 569.9 296.414 569.122 297.118 567.568L345.749 460.269C346.454 458.714 346.453 456.508 345.747 454.138L297.016 290.627C296.31 288.259 294.957 285.92 293.255 284.125L175.702 160.179Z" fill="url(#paint5_linear)" fill-opacity="0.4"/>
<path fill-rule="evenodd" clip-rule="evenodd" d="M143.442 471.983L87.4177 412.845C86.5687 411.948 85.6151 411.398 84.7664 411.314L28.7622 405.772C27.9129 405.688 27.2383 406.078 26.8866 406.857L3.71134 458.152C3.35948 458.931 3.35989 460.034 3.71248 461.22L26.9356 539.303C27.288 540.488 27.9632 541.657 28.8127 542.554L84.8368 601.692C85.6858 602.588 86.6394 603.139 87.4881 603.223L143.492 608.765C144.342 608.849 145.016 608.459 145.368 607.68L168.543 556.385C168.895 555.606 168.895 554.502 168.542 553.317L145.319 475.233C144.966 474.049 144.291 472.879 143.442 471.983ZM88.742 409.908C87.044 408.116 85.1368 407.015 83.4394 406.847L27.4351 401.305C25.7367 401.137 24.3874 401.917 23.6841 403.474L0.50881 454.769C-0.194916 456.327 -0.194101 458.534 0.511077 460.905L23.7342 538.989C24.4389 541.358 25.7894 543.697 27.4884 545.49L83.5125 604.629C85.2105 606.421 87.1177 607.522 88.8151 607.69L144.819 613.232C146.518 613.4 147.867 612.62 148.57 611.063L171.746 559.768C172.449 558.21 172.449 556.003 171.743 553.632L148.52 475.548C147.816 473.179 146.465 470.84 144.766 469.046L88.742 409.908Z" fill="url(#paint6_linear)" fill-opacity="0.4"/>
<path fill-rule="evenodd" clip-rule="evenodd" d="M69.559 564.655L44.1584 537.843C43.308 536.945 42.3529 536.394 41.5028 536.31L16.1113 533.797C15.2606 533.713 14.5849 534.104 14.2327 534.883L3.72675 558.136C3.37432 558.916 3.37473 560.022 3.72789 561.209L14.2555 596.606C14.6084 597.793 15.2848 598.964 16.1357 599.862L41.5362 626.674C42.3866 627.572 43.3417 628.124 44.1918 628.208L69.5834 630.72C70.434 630.804 71.1097 630.414 71.4619 629.634L81.9679 606.381C82.3203 605.601 82.3199 604.496 81.9668 603.308L71.4391 567.911C71.0862 566.725 70.4099 565.553 69.559 564.655ZM45.4849 534.902C43.7841 533.107 41.8738 532.004 40.1736 531.836L14.7821 529.323C13.0809 529.155 11.7294 529.936 11.025 531.495L0.519016 554.748C-0.185853 556.308 -0.185037 558.519 0.521287 560.894L11.0489 596.291C11.7548 598.664 13.1074 601.007 14.8092 602.803L40.2098 629.615C41.9105 631.411 43.8208 632.514 45.521 632.682L70.9126 635.194C72.6138 635.363 73.9653 634.581 74.6697 633.022L85.1756 609.769C85.8805 608.209 85.8797 605.998 85.1734 603.623L74.6457 568.227C73.9399 565.853 72.5872 563.511 70.8854 561.714L45.4849 534.902Z" fill="url(#paint7_linear)" fill-opacity="0.4"/>
<path fill-rule="evenodd" clip-rule="evenodd" d="M32.6084 610.992L22.5319 600.355C21.6787 599.455 20.7204 598.902 19.8675 598.817L9.79451 597.82C8.94108 597.736 8.2631 598.128 7.90973 598.91L3.74355 608.131C3.38995 608.913 3.39036 610.022 3.74469 611.214L7.91946 625.25C8.27357 626.441 8.95212 627.616 9.80585 628.517L19.8824 639.153C20.7356 640.054 21.6939 640.607 22.5468 640.692L32.6197 641.689C33.4732 641.773 34.1511 641.381 34.5045 640.599L38.6707 631.378C39.0243 630.596 39.0239 629.486 38.6696 628.295L34.4948 614.259C34.1407 613.068 33.4621 611.893 32.6084 610.992ZM23.8627 597.405C22.1563 595.604 20.2397 594.497 18.5339 594.328L8.46094 593.331C6.75408 593.162 5.39812 593.946 4.69137 595.511L0.525195 604.731C-0.182008 606.297 -0.181189 608.515 0.527473 610.897L4.70225 624.934C5.41046 627.315 6.76757 629.665 8.47503 631.468L18.5516 642.104C20.2579 643.905 22.1746 645.012 23.8803 645.181L33.9533 646.177C35.6602 646.346 37.0161 645.563 37.7229 643.998L41.889 634.778C42.5962 633.212 42.5954 630.994 41.8868 628.611L37.712 614.575C37.0038 612.194 35.6467 609.844 33.9392 608.041L23.8627 597.405Z" fill="url(#paint8_linear)" fill-opacity="0.4"/>
<path fill-rule="evenodd" clip-rule="evenodd" d="M216.654 378.783L130.278 287.606C129.432 286.713 128.482 286.164 127.636 286.08L41.2901 277.537C40.4439 277.453 39.7717 277.842 39.4214 278.617L3.68887 357.707C3.33828 358.483 3.33868 359.582 3.69 360.764L39.4962 481.156C39.8473 482.336 40.5201 483.502 41.3666 484.395L127.743 575.573C128.589 576.466 129.539 577.014 130.385 577.098L216.731 585.641C217.577 585.725 218.249 585.337 218.599 584.561L254.332 505.472C254.682 504.696 254.682 503.596 254.331 502.415L218.524 382.023C218.173 380.842 217.501 379.677 216.654 378.783ZM131.597 284.68C129.905 282.894 128.005 281.797 126.314 281.63L39.9679 273.086C38.2755 272.919 36.9311 273.696 36.2304 275.247L0.497878 354.336C-0.203312 355.888 -0.202498 358.088 0.500139 360.45L36.3064 480.842C37.0086 483.203 38.3541 485.534 40.0471 487.321L126.423 578.498C128.115 580.284 130.016 581.381 131.707 581.549L218.053 590.092C219.745 590.26 221.09 589.483 221.79 587.932L257.523 508.842C258.224 507.29 258.223 505.091 257.521 502.728L221.714 382.336C221.012 379.975 219.667 377.645 217.974 375.858L131.597 284.68Z" fill="url(#paint9_linear)" fill-opacity="0.4"/>
</g>
<defs>
<linearGradient id="paint0_linear" x1="-77.2486" y1="-380.965" x2="-193.333" y2="448.963" gradientUnits="userSpaceOnUse">
<stop stop-color="#E11D84"/>
<stop offset="1" stop-color="#0DD1EB"/>
</linearGradient>
<linearGradient id="paint1_linear" x1="-68.7702" y1="-265.456" x2="-171.67" y2="472.334" gradientUnits="userSpaceOnUse">
<stop stop-color="#E11D84"/>
<stop offset="1" stop-color="#0DD1EB"/>
</linearGradient>
<linearGradient id="paint2_linear" x1="-60.2595" y1="-150.14" x2="-150.351" y2="495.449" gradientUnits="userSpaceOnUse">
<stop stop-color="#E11D84"/>
<stop offset="1" stop-color="#0DD1EB"/>
</linearGradient>
<linearGradient id="paint3_linear" x1="-51.7489" y1="-35.8245" x2="-129.032" y2="517.563" gradientUnits="userSpaceOnUse">
<stop stop-color="#E11D84"/>
<stop offset="1" stop-color="#0DD1EB"/>
</linearGradient>
<linearGradient id="paint4_linear" x1="-43.2388" y1="80.4917" x2="-107.713" y2="541.679" gradientUnits="userSpaceOnUse">
<stop stop-color="#E11D84"/>
<stop offset="1" stop-color="#0DD1EB"/>
</linearGradient>
<linearGradient id="paint5_linear" x1="-34.7284" y1="195.808" x2="-86.394" y2="564.794" gradientUnits="userSpaceOnUse">
<stop stop-color="#E11D84"/>
<stop offset="1" stop-color="#0DD1EB"/>
</linearGradient>
<linearGradient id="paint6_linear" x1="-17.6206" y1="426.489" x2="-43.2798" y2="611.185" gradientUnits="userSpaceOnUse">
<stop stop-color="#E11D84"/>
<stop offset="1" stop-color="#0DD1EB"/>
</linearGradient>
<linearGradient id="paint7_linear" x1="-9.11089" y1="541.804" x2="-21.9617" y2="634.3" gradientUnits="userSpaceOnUse">
<stop stop-color="#E11D84"/>
<stop offset="1" stop-color="#0DD1EB"/>
</linearGradient>
<linearGradient id="paint8_linear" x1="-4.85798" y1="599.46" x2="-11.305" y2="645.86" gradientUnits="userSpaceOnUse">
<stop stop-color="#E11D84"/>
<stop offset="1" stop-color="#0DD1EB"/>
</linearGradient>
<linearGradient id="paint9_linear" x1="-26.0507" y1="310.857" x2="-64.4005" y2="586.903" gradientUnits="userSpaceOnUse">
<stop stop-color="#E11D84"/>
<stop offset="1" stop-color="#0DD1EB"/>
</linearGradient>
<clipPath id="clip0">
<rect width="660" height="656" fill="white"/>
</clipPath>
</defs>
</svg>
