<svg width="99" height="99" viewBox="0 0 99 99" fill="none" xmlns="http://www.w3.org/2000/svg">
<path d="M84.5018 14.4982C75.2187 5.21516 62.6282 0 49.5 0C36.3718 0 23.7813 5.21516 14.4982 14.4982C5.21516 23.7813 0 36.3718 0 49.5C0 62.6282 5.21516 75.2187 14.4982 84.5018C23.7813 93.7848 36.3718 99 49.5 99C62.6282 99 75.2187 93.7848 84.5018 84.5018C93.7848 75.2187 99 62.6282 99 49.5C99 36.3718 93.7848 23.7813 84.5018 14.4982ZM49.5 92.3654C25.8644 92.3654 6.63462 73.136 6.63462 49.5C6.63462 25.864 25.864 6.63462 49.5 6.63462C73.136 6.63462 92.3654 25.864 92.3654 49.5C92.3654 73.136 73.136 92.3654 49.5 92.3654Z" fill="#0DD1EB"/>
<path d="M42.0403 59.8785L26.8196 44.658L22.1284 49.3493L42.0403 69.2612L76.768 34.5337L72.0765 29.8425L42.0403 59.8785Z" fill="#0DD1EB"/>
</svg>
